# xmcd
#
# Track frame offsets:
# 150
# 17820
# 31112
# 44129
# 64338
# 80307
# 96539
# 114110
# 132740
# 148742
# 162763
#
# Disc length: 2396 seconds
#
#
# Revision: 3
# Processed by: cddbd v1.5.1PL0 Copyright (c) Steve Scherf et al.
# Submitted via: FreeRIP 2.92 
#
DISCID=99095a0b
DTITLE=Chalee TENNISON - Chalee Tennison
DYEAR=1999
DGENRE=Country
TTITLE0=Someone Else's Turn to Cry
TTITLE1=I Let Him Get Away With It
TTITLE2=Handful of Water
TTITLE3=Just Because She Lives There
TTITLE4=Leave It At That
TTITLE5=A Stolen Car
TTITLE6=I Can Feel You Drifting
TTITLE7=It Ain't So Easy
TTITLE8=There's A War In Me
TTITLE9=Sometime
TTITLE10=I'd Rather Miss You
EXTD=
EXTT0=
EXTT1=
EXTT2=
EXTT3=
EXTT4=
EXTT5=
EXTT6=
EXTT7=
EXTT8=
EXTT9=
EXTT10=
PLAYORDER=
